<?xml version="1.0" standalone="no"?>
<!DOCTYPE svg PUBLIC "-//W3C//DTD SVG 20010904//EN"
 "http://www.w3.org/TR/2001/REC-SVG-20010904/DTD/svg10.dtd">
<svg version="1.0" xmlns="http://www.w3.org/2000/svg"
 width="546.000000pt" height="546.000000pt" viewBox="0 0 546.000000 546.000000"
 preserveAspectRatio="xMidYMid meet">

<g transform="translate(0.000000,546.000000) scale(0.100000,-0.100000)"
fill="#000000" stroke="none">
<path d="M2285 4238 c-346 -594 -688 -1178 -758 -1297 -162 -273 -209 -365
-257 -510 -73 -218 -84 -295 -84 -561 0 -207 2 -247 22 -340 52 -237 159 -485
290 -670 86 -122 290 -326 412 -412 327 -232 753 -351 1142 -318 548 46 1020
321 1320 769 271 406 359 877 252 1361 -45 199 -111 356 -249 585 -40 66 -158
266 -262 445 -823 1409 -1074 1838 -1126 1928 -32 56 -62 102 -65 102 -4 -1
-290 -487 -637 -1082z m1974 -2493 c59 -30 67 -117 30 -300 -26 -128 -85 -277
-151 -385 -64 -105 -206 -250 -306 -315 -122 -78 -292 -145 -370 -145 -37 0
-50 6 -78 34 -39 39 -45 86 -19 136 18 35 34 44 122 71 240 74 420 237 518
468 33 79 65 212 72 296 6 77 22 116 55 139 28 20 90 21 127 1z"/>
</g>
</svg>
