<?xml version="1.0" standalone="no"?>
<!DOCTYPE svg PUBLIC "-//W3C//DTD SVG 20010904//EN"
 "http://www.w3.org/TR/2001/REC-SVG-20010904/DTD/svg10.dtd">
<svg version="1.0" xmlns="http://www.w3.org/2000/svg"
 width="546.000000pt" height="546.000000pt" viewBox="0 0 546.000000 546.000000"
 preserveAspectRatio="xMidYMid meet">

<g transform="translate(0.000000,546.000000) scale(0.100000,-0.100000)"
fill="#000000" stroke="none">
<path d="M2681 5432 c-30 -15 -105 -139 -618 -1017 -321 -550 -663 -1135 -761
-1300 -201 -341 -283 -499 -330 -635 -160 -469 -126 -995 94 -1433 222 -444
611 -784 1073 -937 552 -184 1146 -105 1627 215 678 451 984 1290 756 2070
-54 184 -108 302 -227 500 -64 105 -359 610 -1242 2122 -202 346 -239 404
-268 417 -42 20 -62 20 -104 -2z m306 -762 c563 -965 1093 -1871 1133 -1935
258 -418 315 -935 153 -1398 -176 -508 -600 -901 -1118 -1037 -159 -42 -251
-53 -420 -53 -283 0 -501 53 -755 184 -373 193 -664 535 -795 933 -57 175 -79
314 -79 511 0 346 74 588 287 934 32 53 930 1589 1265 2164 66 112 76 126 87
110 6 -10 116 -196 242 -413z"/>
<path d="M3960 1753 c-43 -22 -70 -73 -70 -131 0 -61 -27 -183 -61 -276 -89
-243 -268 -416 -514 -496 -97 -32 -122 -46 -140 -80 -34 -66 -4 -140 65 -161
49 -15 111 0 248 59 252 109 437 300 546 564 64 157 106 387 83 456 -22 66
-96 96 -157 65z"/>
</g>
</svg>
